User Type,Username,Date,Text
,teresamungarro,2012-10-28T03:37Z,wtf does TS mean????  there should be some video and audio info here so we know whether to download it or not and not waste time.
,LittleGod,2012-10-28T04:01Z,"TS= Telesync
http://en.wikipedia.org/wiki/Telesync"
,Crimsondrake1138,2012-10-28T04:12Z,You must be new if you don't know what TS means.
,quadman77,2012-10-28T20:49Z,"General
Complete name: Savages 2012 TS x264 AAC-UNiQUE.mp4
Format: MPEG-4
Format profile: Base Media
Codec ID: isom
File size: 2.20 GiB
Duration: 2h 5mn
Overall bit rate mode: Variable
Overall bit rate: 2 504 Kbps
Encoded date: UTC 2012-10-28 00:16:18

Video
ID: 1
Format: AVC
Format/Info: Advanced Video Codec
Format profile: High@L4.1
Format settings, CABAC: Yes
Format settings, ReFrames: 3 frames
Codec ID: avc1
Codec ID/Info: Advanced Video Coding
Duration: 2h 5mn
Bit rate mode: Variable
Bit rate: 2 362 Kbps
Maximum bit rate: 40.0 Mbps
Width: 720 pixels
Height: 288 pixels
Display aspect ratio: 2.500
Frame rate mode: Constant
Frame rate: 25.000 fps
Color space: YUV
Chroma subsampling: 4:2:0
Bit depth: 8 bits
Scan type: Progressive
Bits/(Pixel*Frame): 0.456
Stream size: 2.08 GiB (94%)
Writing library: x264 core 128 r2216 198a7ea

Audio
ID: 2
Format: AAC
Format/Info: Advanced Audio Codec
Format profile: LC
Codec ID: 40
Duration: 2h 5mn
Bit rate mode: Variable
Bit rate: 138 Kbps
Maximum bit rate: 176 Kbps
Channel(s): 2 channels
Channel positions: Front: L R
Sampling rate: 48.0 KHz
Compression mode: Lossy
Stream size: 124 MiB (6%)
Language: English
Encoded date: UTC 2012-10-28 00:17:09

Source: iLG - Thanks! "
